<mxfile host="app.diagrams.net" modified="2023-01-31T02:52:54.918Z" agent="5.0 (Macintosh; Intel Mac OS X 10_15_7) AppleWebKit/537.36 (KHTML, like Gecko) Chrome/109.0.0.0 Safari/537.36" etag="oG0FGuohTJzShObVjSaw" version="20.8.13" type="github">
  <diagram id="CYfjbphqx9tA-r45BFys" name="第 1 页">
    <mxGraphModel dx="1202" dy="743" grid="1" gridSize="10" guides="1" tooltips="1" connect="1" arrows="1" fold="1" page="1" pageScale="1" pageWidth="827" pageHeight="1169" math="0" shadow="0">
      <root>
        <mxCell id="0" />
        <mxCell id="1" parent="0" />
        <mxCell id="-97AYH8ZoUTmS3safVxG-1" value="运行时脚本执行时做了哪些事情" style="text;html=1;strokeColor=none;fillColor=none;align=center;verticalAlign=middle;whiteSpace=wrap;rounded=0;" parent="1" vertex="1">
          <mxGeometry x="20" y="20" width="270" height="50" as="geometry" />
        </mxCell>
        <mxCell id="nyC_OaXjF2CT9D5yMoAg-6" style="edgeStyle=orthogonalEdgeStyle;rounded=0;orthogonalLoop=1;jettySize=auto;html=1;entryX=0.5;entryY=0;entryDx=0;entryDy=0;" edge="1" parent="1" source="nyC_OaXjF2CT9D5yMoAg-3" target="nyC_OaXjF2CT9D5yMoAg-4">
          <mxGeometry relative="1" as="geometry" />
        </mxCell>
        <mxCell id="nyC_OaXjF2CT9D5yMoAg-7" value="(根)节点可复用" style="edgeLabel;html=1;align=center;verticalAlign=middle;resizable=0;points=[];" vertex="1" connectable="0" parent="nyC_OaXjF2CT9D5yMoAg-6">
          <mxGeometry x="0.2333" y="-3" relative="1" as="geometry">
            <mxPoint as="offset" />
          </mxGeometry>
        </mxCell>
        <mxCell id="nyC_OaXjF2CT9D5yMoAg-13" style="edgeStyle=orthogonalEdgeStyle;rounded=0;orthogonalLoop=1;jettySize=auto;html=1;" edge="1" parent="1" source="nyC_OaXjF2CT9D5yMoAg-3" target="nyC_OaXjF2CT9D5yMoAg-12">
          <mxGeometry relative="1" as="geometry" />
        </mxCell>
        <mxCell id="nyC_OaXjF2CT9D5yMoAg-14" value="不可复用" style="edgeLabel;html=1;align=center;verticalAlign=middle;resizable=0;points=[];" vertex="1" connectable="0" parent="nyC_OaXjF2CT9D5yMoAg-13">
          <mxGeometry x="0.0571" y="2" relative="1" as="geometry">
            <mxPoint x="-8" y="2" as="offset" />
          </mxGeometry>
        </mxCell>
        <mxCell id="nyC_OaXjF2CT9D5yMoAg-3" value="patch" style="rounded=1;whiteSpace=wrap;html=1;" vertex="1" parent="1">
          <mxGeometry x="160" y="240" width="140" height="40" as="geometry" />
        </mxCell>
        <mxCell id="nyC_OaXjF2CT9D5yMoAg-10" style="edgeStyle=orthogonalEdgeStyle;rounded=0;orthogonalLoop=1;jettySize=auto;html=1;" edge="1" parent="1" source="nyC_OaXjF2CT9D5yMoAg-4" target="nyC_OaXjF2CT9D5yMoAg-5">
          <mxGeometry relative="1" as="geometry" />
        </mxCell>
        <mxCell id="nyC_OaXjF2CT9D5yMoAg-11" value="没有vnode.text 并且 新老孩子都存在" style="edgeLabel;html=1;align=center;verticalAlign=middle;resizable=0;points=[];" vertex="1" connectable="0" parent="nyC_OaXjF2CT9D5yMoAg-10">
          <mxGeometry x="-0.0167" y="1" relative="1" as="geometry">
            <mxPoint y="1" as="offset" />
          </mxGeometry>
        </mxCell>
        <mxCell id="nyC_OaXjF2CT9D5yMoAg-4" value="patchVnode&lt;br&gt;text和children得差异处理" style="rounded=1;whiteSpace=wrap;html=1;" vertex="1" parent="1">
          <mxGeometry x="160" y="360" width="140" height="40" as="geometry" />
        </mxCell>
        <mxCell id="nyC_OaXjF2CT9D5yMoAg-19" style="edgeStyle=orthogonalEdgeStyle;rounded=0;orthogonalLoop=1;jettySize=auto;html=1;entryX=0;entryY=0.5;entryDx=0;entryDy=0;" edge="1" parent="1" source="nyC_OaXjF2CT9D5yMoAg-5" target="nyC_OaXjF2CT9D5yMoAg-4">
          <mxGeometry relative="1" as="geometry">
            <Array as="points">
              <mxPoint x="50" y="520" />
              <mxPoint x="50" y="380" />
            </Array>
          </mxGeometry>
        </mxCell>
        <mxCell id="nyC_OaXjF2CT9D5yMoAg-20" value="oldVnode可复用" style="edgeLabel;html=1;align=center;verticalAlign=middle;resizable=0;points=[];" vertex="1" connectable="0" parent="nyC_OaXjF2CT9D5yMoAg-19">
          <mxGeometry x="0.1743" y="-2" relative="1" as="geometry">
            <mxPoint y="36" as="offset" />
          </mxGeometry>
        </mxCell>
        <mxCell id="nyC_OaXjF2CT9D5yMoAg-22" style="edgeStyle=orthogonalEdgeStyle;rounded=0;orthogonalLoop=1;jettySize=auto;html=1;" edge="1" parent="1" source="nyC_OaXjF2CT9D5yMoAg-5" target="nyC_OaXjF2CT9D5yMoAg-21">
          <mxGeometry relative="1" as="geometry" />
        </mxCell>
        <mxCell id="nyC_OaXjF2CT9D5yMoAg-5" value="updateChildren&lt;br&gt;(双端对比 + map 判断老节点复用情况)" style="rounded=1;whiteSpace=wrap;html=1;" vertex="1" parent="1">
          <mxGeometry x="150" y="490" width="160" height="60" as="geometry" />
        </mxCell>
        <mxCell id="nyC_OaXjF2CT9D5yMoAg-12" value="&lt;b&gt;createElm&lt;/b&gt;&lt;br&gt;根据虚拟DOM树递归创建DOM树" style="rounded=1;whiteSpace=wrap;html=1;" vertex="1" parent="1">
          <mxGeometry x="400" y="230" width="240" height="60" as="geometry" />
        </mxCell>
        <mxCell id="nyC_OaXjF2CT9D5yMoAg-21" value="&lt;pre style=&quot;background-color:#fdf6e3;color:#2f3f50;font-family:&#39;Fira Code&#39;,monospace;font-size:11.3pt;&quot;&gt;removeVnodes&lt;/pre&gt;" style="rounded=1;whiteSpace=wrap;html=1;" vertex="1" parent="1">
          <mxGeometry x="370" y="490" width="160" height="60" as="geometry" />
        </mxCell>
      </root>
    </mxGraphModel>
  </diagram>
</mxfile>
